HIERARCHY
ROOT Hips
{
	OFFSET 0.000000 0.000000 0.000000
	CHANNELS 6 Xposition Yposition Zposition Xrotation Yrotation Zrotation
	JOINT LeftUpLeg_virtual
	{
		OFFSET 0.000000 0.000000 0.000000
		CHANNELS 3 Xrotation Yrotation Zrotation
		JOINT LeftUpLeg
		{
			OFFSET 11.394100 -6.187798 -0.413800
			CHANNELS 3 Xrotation Yrotation Zrotation
			JOINT LeftLeg
			{
				OFFSET 0.430247 -32.302673 3.732800
				CHANNELS 3 Xrotation Yrotation Zrotation
				JOINT LeftFoot
				{
					OFFSET -0.430247 -48.264931 -6.423300
					CHANNELS 3 Xrotation Yrotation Zrotation
					JOINT LeftToeBase
					{
						OFFSET 4.230900 -16.068199 23.438400
						CHANNELS 3 Xrotation Yrotation Zrotation
						JOINT LeftToe_End
						{
							OFFSET 4.510700 0.695400 19.974600
							CHANNELS 3 Xrotation Yrotation Zrotation
							End Site
							{
								OFFSET 0 0 0
							}
						}
					}
				}
			}
		}
	}
	JOINT RightUpLeg_virtual
	{
		OFFSET 0.000000 0.000000 0.000000
		CHANNELS 3 Xrotation Yrotation Zrotation
		JOINT RightUpLeg
		{
			OFFSET -11.333700 -6.187798 -0.413800
			CHANNELS 3 Xrotation Yrotation Zrotation
			JOINT RightLeg
			{
				OFFSET -0.430392 -32.302628 3.733000
				CHANNELS 3 Xrotation Yrotation Zrotation
				JOINT RightFoot
				{
					OFFSET 0.430392 -48.264973 -6.423500
					CHANNELS 3 Xrotation Yrotation Zrotation
					JOINT RightToeBase
					{
						OFFSET -4.230900 -16.068199 23.438400
						CHANNELS 3 Xrotation Yrotation Zrotation
						JOINT RightToe_End
						{
							OFFSET -4.510700 0.695400 19.974600
							CHANNELS 3 Xrotation Yrotation Zrotation
							End Site
							{
								OFFSET 0 0 0
							}
						}
					}
				}
			}
		}
	}
	JOINT Spine_virtual
	{
		OFFSET 0.000000 0.000000 0.000000
		CHANNELS 3 Xrotation Yrotation Zrotation
		JOINT Spine
		{
			OFFSET -0.002400 12.777504 0.315300
			CHANNELS 3 Xrotation Yrotation Zrotation
			JOINT Spine1
			{
				OFFSET -0.002067 5.816869 0.032633
				CHANNELS 3 Xrotation Yrotation Zrotation
				JOINT Spine1_split
				{
					OFFSET -0.002067 5.816869 0.032633
					CHANNELS 3 Xrotation Yrotation Zrotation
					JOINT Spine2
					{
						OFFSET -0.002067 5.816869 0.032633
						CHANNELS 3 Xrotation Yrotation Zrotation
						JOINT Neck_virtual
						{
							OFFSET 0.000000 0.000000 0.000000
							CHANNELS 3 Xrotation Yrotation Zrotation
							JOINT Neck
							{
								OFFSET -0.003700 21.199493 -0.826900
								CHANNELS 3 Xrotation Yrotation Zrotation
								JOINT Head
								{
									OFFSET 0.000000 20.442200 4.834800
									CHANNELS 3 Xrotation Yrotation Zrotation
									JOINT HeadTop_End
									{
										OFFSET 0.000000 34.668396 4.968400
										CHANNELS 3 Xrotation Yrotation Zrotation
										End Site
										{
											OFFSET 0 0 0
										}
									}
								}
							}
						}
						JOINT LeftShoulder_virtual
						{
							OFFSET 0.000000 0.000000 0.000000
							CHANNELS 3 Xrotation Yrotation Zrotation
							JOINT LeftShoulder
							{
								OFFSET 3.288150 8.794197 -1.372250
								CHANNELS 3 Xrotation Yrotation Zrotation
								JOINT LeftShoulder_split
								{
									OFFSET 3.288150 8.794197 -1.372250
									CHANNELS 3 Xrotation Yrotation Zrotation
									JOINT LeftArm
									{
										OFFSET 11.953299 -2.279007 -0.146200
										CHANNELS 3 Xrotation Yrotation Zrotation
										JOINT LeftForeArm
										{
											OFFSET 18.448900 0.000000 0.000000
											CHANNELS 3 Xrotation Yrotation Zrotation
											JOINT LeftHand
											{
												OFFSET 29.527798 0.000000 0.000000
												CHANNELS 3 Xrotation Yrotation Zrotation
												End Site
												{
													OFFSET 0 0 0
												}
											}
										}
									}
								}
							}
						}
						JOINT RightShoulder_virtual
						{
							OFFSET 0.000000 0.000000 0.000000
							CHANNELS 3 Xrotation Yrotation Zrotation
							JOINT RightShoulder
							{
								OFFSET -3.249400 8.794197 -1.372250
								CHANNELS 3 Xrotation Yrotation Zrotation
								JOINT RightShoulder_split
								{
									OFFSET -3.249400 8.794197 -1.372250
									CHANNELS 3 Xrotation Yrotation Zrotation
									JOINT RightArm
									{
										OFFSET -11.953299 -2.279007 -0.146200
										CHANNELS 3 Xrotation Yrotation Zrotation
										JOINT RightForeArm
										{
											OFFSET -18.448900 0.000000 0.000000
											CHANNELS 3 Xrotation Yrotation Zrotation
											JOINT RightHand
											{
												OFFSET -29.527802 0.000000 0.000000
												CHANNELS 3 Xrotation Yrotation Zrotation
												End Site
												{
													OFFSET 0 0 0
												}
											}
										}
									}
								}
							}
						}
					}
				}
			}
		}
	}
}
MOTION
Frames: 11
Frame Time: 0.03333333
2.904445 77.327225 -48.904404 0.000000 0.000000 0.000000 16.350513 -76.630652 15.193112 -53.793805 -11.173018 23.735783 74.885846 16.506499 1.393387 -11.267632 2.924202 -28.540661 -2.515479 -3.237330 0.633301 0.000000 0.000000 0.000000 16.350513 -76.630652 15.193112 -61.369591 -0.501528 -14.331788 81.308730 18.616934 -5.360639 -23.894618 -1.479157 5.361745 -1.854617 -0.300668 0.346314 0.000000 0.000000 0.000000 16.350513 -76.630652 15.193112 4.443412 9.306569 -3.031489 9.594759 18.344817 -7.012222 0.000000 0.000000 0.000000 0.000000 0.000000 0.000000 9.594756 18.344785 -7.012210 2.735905 2.537204 0.917079 2.210335 -0.400985 -2.541340 0.000000 0.000000 0.000000 9.594756 18.344785 -7.012210 4.442673 -4.896769 0.391715 0.000000 0.000000 0.000000 -74.044851 -32.200879 -59.779564 45.630028 -71.166405 44.297417 0.000000 0.000000 0.000000 9.594756 18.344785 -7.012210 3.889429 8.333837 -7.261187 0.000000 0.000000 0.000000 -42.000233 -3.203197 27.938517 -12.789900 47.794949 2.424368 0.000000 0.000000 0.000000 
3.639658 76.090080 -49.832794 0.000000 0.000000 0.000000 29.693383 -73.844426 27.536410 -61.198194 -12.798665 24.767087 76.513186 14.297179 0.918930 -10.162876 2.283825 -27.715166 -2.405844 -3.232627 0.742435 0.000000 0.000000 0.000000 29.693383 -73.844426 27.536410 -67.672319 0.283973 -13.565131 83.190222 16.674054 -4.486061 -23.672703 -1.554831 5.687530 -2.114526 -0.465143 0.283344 0.000000 0.000000 0.000000 29.693383 -73.844426 27.536410 4.653250 9.008407 -3.153515 10.016244 17.679738 -7.291491 0.000000 0.000000 0.000000 0.000000 0.000000 0.000000 10.016243 17.679748 -7.291498 1.141880 6.463876 1.637540 0.937891 -0.640670 -6.991578 0.000000 0.000000 0.000000 10.016243 17.679748 -7.291498 4.231881 -4.936966 -0.833272 0.000000 0.000000 0.000000 -58.521409 -25.699401 -53.642639 41.104437 -69.046492 41.375739 0.000000 0.000000 0.000000 10.016243 17.679748 -7.291498 3.219526 7.942034 -3.888784 0.000000 0.000000 0.000000 -35.652385 -7.358674 27.766287 -11.633914 45.311434 5.140163 0.000000 0.000000 0.000000 
4.409893 75.487793 -50.493919 0.000000 0.000000 0.000000 37.532620 -70.564740 35.135463 -67.321261 -13.320342 24.307282 76.746710 12.880650 0.601472 -8.825524 1.844161 -26.613776 -2.284091 -3.228441 0.849411 0.000000 0.000000 0.000000 37.532620 -70.564740 35.135463 -72.665782 1.671692 -13.123420 84.002400 14.434683 -4.038740 -23.226009 -1.780491 6.645938 -1.846803 -0.364236 0.333585 0.000000 0.000000 0.000000 37.532620 -70.564740 35.135463 4.888264 8.724470 -3.215075 10.467512 17.058181 -7.399225 0.000000 0.000000 0.000000 0.000000 0.000000 0.000000 10.467505 17.058186 -7.399230 -0.406297 10.233219 2.248007 -0.042252 -0.748688 -11.408910 0.000000 0.000000 0.000000 10.467505 17.058186 -7.399230 3.963821 -4.635888 -1.485581 0.000000 0.000000 0.000000 -43.366688 -17.194682 -50.718680 30.223853 -66.614152 31.337417 0.000000 0.000000 0.000000 10.467505 17.058186 -7.399230 2.670380 7.955725 -0.110392 0.000000 0.000000 0.000000 -26.274266 -14.550856 27.245768 -10.625647 45.470297 7.582568 0.000000 0.000000 0.000000 
4.978634 75.443192 -50.850975 0.000000 0.000000 0.000000 40.983307 -67.662893 38.937481 -71.306164 -12.753776 22.814760 75.873833 12.378305 0.743095 -7.627773 1.559978 -25.744761 -2.296593 -3.204830 0.819937 0.000000 0.000000 0.000000 40.983307 -67.662893 38.937481 -75.593952 3.405506 -12.925898 83.973727 12.111943 -3.883091 -22.895373 -1.958339 7.941536 -1.704014 -0.321632 0.347831 0.000000 0.000000 0.000000 40.983307 -67.662893 38.937481 5.113171 8.424279 -3.148653 10.870817 16.443030 -7.208350 0.000000 0.000000 0.000000 0.000000 0.000000 0.000000 10.870813 16.443006 -7.208344 -1.908089 13.399162 2.768702 -0.761371 -0.654845 -15.173385 0.000000 0.000000 0.000000 10.870813 16.443006 -7.208344 3.581014 -4.135686 -2.293950 0.000000 0.000000 0.000000 -30.959875 -8.583851 -52.621574 18.886457 -61.626420 19.603418 0.000000 0.000000 0.000000 10.870813 16.443006 -7.208344 2.171241 8.417431 3.878707 0.000000 0.000000 0.000000 -15.534630 -23.529093 30.298992 -10.437994 47.028605 9.884625 0.000000 0.000000 0.000000 
5.241560 75.817757 -50.895607 0.000000 0.000000 0.000000 41.478523 -65.411765 40.054319 -73.235344 -11.558908 20.999577 74.438380 12.302014 1.106078 -6.853595 1.328705 -24.979962 -2.338015 -3.211327 0.785936 0.000000 0.000000 0.000000 41.478523 -65.411765 40.054319 -76.328375 5.054047 -13.100375 83.276487 10.012508 -3.821618 -22.794097 -2.149580 9.277958 -1.782582 -0.344101 0.335875 0.000000 0.000000 0.000000 41.478523 -65.411765 40.054319 5.252525 8.083071 -2.974036 11.081062 15.781152 -6.767764 0.000000 0.000000 0.000000 0.000000 0.000000 0.000000 11.081085 15.781145 -6.767760 -3.119091 15.597205 3.161495 -1.346001 -0.314969 -17.789839 0.000000 0.000000 0.000000 11.081085 15.781145 -6.767760 3.049851 -3.405246 -3.544952 0.000000 0.000000 0.000000 -22.016857 -2.037433 -57.149538 11.625814 -54.757736 11.207335 0.000000 0.000000 0.000000 11.081085 15.781145 -6.767760 1.690197 8.983278 7.466850 0.000000 0.000000 0.000000 -6.361661 -30.272993 37.373665 -11.042713 46.209402 11.671520 0.000000 0.000000 0.000000 
5.252565 76.509529 -50.677162 0.000000 0.000000 0.000000 39.835955 -63.631777 39.135297 -73.554191 -10.031378 19.403534 72.694441 11.793598 1.213828 -6.478553 1.158550 -23.915701 -2.326944 -3.224099 0.797926 0.000000 0.000000 0.000000 39.835955 -63.631777 39.135297 -75.138652 6.351208 -13.878957 82.045824 8.296746 -3.733786 -23.007282 -2.426473 10.514855 -1.811152 -0.366145 0.330012 0.000000 0.000000 0.000000 39.835955 -63.631777 39.135297 5.300792 7.709051 -2.798449 11.107523 15.061313 -6.309678 0.000000 0.000000 0.000000 0.000000 0.000000 0.000000 11.107528 15.061312 -6.309672 -3.882994 16.730738 3.358913 -1.871925 0.300884 -19.147662 0.000000 0.000000 0.000000 11.107528 15.061312 -6.309672 2.450000 -2.519622 -5.037100 0.000000 0.000000 0.000000 -16.129164 2.154831 -61.838955 8.352848 -48.812162 6.678320 0.000000 0.000000 0.000000 11.107528 15.061312 -6.309672 1.308023 9.380000 10.066189 0.000000 0.000000 0.000000 -1.273733 -33.119908 44.699159 -11.414118 41.601419 11.685690 0.000000 0.000000 0.000000 
5.067011 77.468857 -50.257614 0.000000 0.000000 0.000000 36.502177 -62.117142 36.583122 -72.567802 -8.239326 18.212706 70.701214 10.430542 0.895811 -6.403335 1.063484 -22.322952 -2.313989 -3.223224 0.809120 0.000000 0.000000 0.000000 36.502177 -62.117142 36.583122 -72.266325 7.137100 -15.285536 80.327983 6.877183 -3.595342 -23.434779 -2.777207 11.641094 -1.793681 -0.361309 0.332888 0.000000 0.000000 0.000000 36.502177 -62.117142 36.583122 5.323386 7.330129 -2.702490 11.096271 14.317431 -6.012717 0.000000 0.000000 0.000000 0.000000 0.000000 0.000000 11.096260 14.317435 -6.012724 -4.326901 17.006956 3.381650 -2.294022 1.203185 -19.528108 0.000000 0.000000 0.000000 11.096260 14.317435 -6.012724 1.919368 -1.658197 -6.407559 0.000000 0.000000 0.000000 -12.462384 4.667542 -65.750072 7.622224 -45.118881 4.790451 0.000000 0.000000 0.000000 11.096260 14.317435 -6.012724 1.067750 9.583884 11.638584 0.000000 0.000000 0.000000 -0.066728 -33.609957 49.798619 -11.288638 35.301911 10.165011 0.000000 0.000000 0.000000 
4.682281 78.687347 -49.685883 0.000000 0.000000 0.000000 31.824935 -60.783663 32.691573 -70.298404 -6.240208 17.370500 68.363343 8.344770 0.354072 -6.506586 1.010622 -20.370904 -2.316878 -3.214673 0.804157 0.000000 0.000000 0.000000 31.824935 -60.783663 32.691573 -67.794456 7.246488 -17.080584 78.055422 5.586995 -3.418027 -24.014274 -3.163987 12.682590 -1.777805 -0.353074 0.333241 0.000000 0.000000 0.000000 31.824935 -60.783663 32.691573 5.374821 6.969310 -2.672759 11.156142 13.591872 -5.858746 0.000000 0.000000 0.000000 0.000000 0.000000 0.000000 11.156126 13.591866 -5.858749 -4.645028 16.705068 3.301482 -2.555633 2.370574 -19.285705 0.000000 0.000000 0.000000 11.156126 13.591866 -5.858749 1.539215 -0.979781 -7.449232 0.000000 0.000000 0.000000 -10.248654 6.198717 -68.784171 7.803285 -42.857135 4.145334 0.000000 0.000000 0.000000 11.156126 13.591866 -5.858749 0.914573 9.691366 12.616674 0.000000 0.000000 0.000000 -0.464406 -33.541392 52.874882 -11.133630 30.111490 8.534363 0.000000 0.000000 0.000000 
4.094357 80.196793 -49.010620 0.000000 0.000000 0.000000 26.141574 -59.589337 27.698476 -66.699092 -4.185352 16.805984 65.545009 5.849621 -0.172008 -6.666048 0.963172 -18.316414 -2.322573 -3.212353 0.799401 0.000000 0.000000 0.000000 26.141574 -59.589337 27.698476 -61.802666 6.496232 -18.883173 75.026992 4.291250 -3.205142 -24.601442 -3.532764 13.632032 -1.782681 -0.351138 0.333077 0.000000 0.000000 0.000000 26.141574 -59.589337 27.698476 5.444504 6.633674 -2.646500 11.258062 12.905525 -5.723234 0.000000 0.000000 0.000000 0.000000 0.000000 0.000000 11.258065 12.905531 -5.723239 -4.896952 15.969124 3.155777 -2.683096 3.761827 -18.590062 0.000000 0.000000 0.000000 11.258065 12.905531 -5.723239 1.302180 -0.535926 -8.171404 0.000000 0.000000 0.000000 -8.929558 7.210077 -70.942129 7.684434 -41.119112 3.743650 0.000000 0.000000 0.000000 11.258065 12.905531 -5.723239 0.788699 9.767805 13.369397 0.000000 0.000000 0.000000 -0.649596 -33.621524 54.840716 -11.126719 27.480255 7.662384 0.000000 0.000000 0.000000 
3.336859 82.026314 -48.284943 0.000000 0.000000 0.000000 19.846610 -58.477307 21.910147 -61.823560 -2.228723 16.546618 62.106254 3.181541 -0.598384 -6.738101 0.908823 -16.355115 -2.323587 -3.217587 0.801920 0.000000 0.000000 0.000000 19.846610 -58.477307 21.910147 -54.539102 4.804438 -20.327031 71.025867 2.998669 -2.933430 -24.984470 -3.821297 14.415476 -1.788004 -0.357466 0.334023 0.000000 0.000000 0.000000 19.846610 -58.477307 21.910147 5.481810 6.321211 -2.577062 11.295736 12.263133 -5.514565 0.000000 0.000000 0.000000 0.000000 0.000000 0.000000 11.295742 12.263143 -5.514582 -5.058360 14.842455 2.947572 -2.755477 5.336418 -17.479643 0.000000 0.000000 0.000000 11.295742 12.263143 -5.514582 1.160479 -0.276606 -8.661056 0.000000 0.000000 0.000000 -8.170902 7.871539 -72.237706 7.269994 -39.939617 3.395580 0.000000 0.000000 0.000000 11.295742 12.263143 -5.514582 0.689391 9.820725 13.929187 0.000000 0.000000 0.000000 -0.119431 -33.724667 56.428188 -11.126262 27.277575 7.537034 0.000000 0.000000 0.000000 
2.468107 84.123062 -47.552849 0.000000 0.000000 0.000000 13.446580 -57.376813 15.801947 -55.979868 -0.454395 16.595720 58.037565 0.552893 -0.910195 -6.625427 0.852888 -14.631372 -2.319416 -3.220852 0.805028 0.000000 0.000000 0.000000 13.446580 -57.376813 15.801947 -46.486657 2.318996 -21.190583 66.018006 1.845608 -2.550783 -24.970038 -3.981404 14.930435 -1.788559 -0.361757 0.333937 0.000000 0.000000 0.000000 13.446580 -57.376813 15.801947 5.456817 6.029830 -2.450820 11.209168 11.667987 -5.211699 0.000000 0.000000 0.000000 0.000000 0.000000 0.000000 11.209171 11.667971 -5.211689 -5.125768 13.380389 2.683450 -2.839486 7.055715 -16.007414 0.000000 0.000000 0.000000 11.209171 11.667971 -5.211689 1.075381 -0.125456 -8.974308 0.000000 0.000000 0.000000 -7.847238 8.168222 -72.745415 7.062293 -39.525113 3.258028 0.000000 0.000000 0.000000 11.209171 11.667971 -5.211689 0.642831 9.842018 14.183135 0.000000 0.000000 0.000000 0.730479 -33.496682 57.932462 -10.957089 28.433589 7.702984 0.000000 0.000000 0.000000 
